HIERARCHY
ROOT RootJoint
{
    OFFSET   0.000000   0.000000   0.000000
    CHANNELS 6 Xposition Yposition Zposition Xrotation Yrotation Zrotation
    JOINT pelvis_lowerback
    {
        OFFSET   0.000000   0.093605   0.000000
        CHANNELS 3 Xrotation Yrotation Zrotation
        JOINT lowerback_torso
        {
            OFFSET   0.000000   0.100000   0.000000
            CHANNELS 3 Xrotation Yrotation Zrotation
            JOINT torso_head
            {
                OFFSET   0.000000   0.282350   0.000000
                CHANNELS 3 Xrotation Yrotation Zrotation
                End Site
                {
                    OFFSET   0.000000   0.192650   0.000000
                }
            }
            JOINT rTorso_Clavicle
            {
                OFFSET  -0.001000   0.157500   0.000000
                CHANNELS 3 Xrotation Yrotation Zrotation
                JOINT rShoulder
                {
                    OFFSET  -0.117647   0.000000   0.000000
                    CHANNELS 3 Xrotation Yrotation Zrotation
                    JOINT rElbow
                    {
                        OFFSET  -0.245000   0.000000   0.000000
                        CHANNELS 3 Xrotation Yrotation Zrotation
                        JOINT rWrist
                        {
                            OFFSET  -0.240000   0.000000   0.000000
                            CHANNELS 3 Xrotation Yrotation Zrotation
                            End Site
                            {
                                OFFSET  -0.116353  -0.002500   0.000000
                            }
                        }
                    }
                }
            }
            JOINT lTorso_Clavicle
            {
                OFFSET   0.001000   0.157500   0.000000
                CHANNELS 3 Xrotation Yrotation Zrotation
                JOINT lShoulder
                {
                    OFFSET   0.117647   0.000000   0.000000
                    CHANNELS 3 Xrotation Yrotation Zrotation
                    JOINT lElbow
                    {
                        OFFSET   0.245000   0.000000   0.000000
                        CHANNELS 3 Xrotation Yrotation Zrotation
                        JOINT lWrist
                        {
                            OFFSET   0.240000   0.000000   0.000000
                            CHANNELS 3 Xrotation Yrotation Zrotation
                            End Site
                            {
                                OFFSET   0.116353  -0.002500   0.000000
                            }
                        }
                    }
                }
            }
        }
    }
    JOINT rHip
    {
        OFFSET  -0.100000  -0.051395   0.000000
        CHANNELS 3 Xrotation Yrotation Zrotation
        JOINT rKnee
        {
            OFFSET   0.000000  -0.410000   0.000000
            CHANNELS 3 Xrotation Yrotation Zrotation
            JOINT rAnkle
            {
                OFFSET   0.000000  -0.390000   0.000000
                CHANNELS 3 Xrotation Yrotation Zrotation
                JOINT rToeJoint
                {
                    OFFSET   0.000000  -0.050000   0.130000
                    CHANNELS 3 Xrotation Yrotation Zrotation
                    End Site
                    {
                        OFFSET  -0.010000   0.002000   0.060000
                    }
                }
            }
        }
    }
    JOINT lHip
    {
        OFFSET   0.100000  -0.051395   0.000000
        CHANNELS 3 Xrotation Yrotation Zrotation
        JOINT lKnee
        {
            OFFSET   0.000000  -0.410000   0.000000
            CHANNELS 3 Xrotation Yrotation Zrotation
            JOINT lAnkle
            {
                OFFSET   0.000000  -0.390000   0.000000
                CHANNELS 3 Xrotation Yrotation Zrotation
                JOINT lToeJoint
                {
                    OFFSET   0.000000  -0.050000   0.130000
                    CHANNELS 3 Xrotation Yrotation Zrotation
                    End Site
                    {
                        OFFSET   0.010000   0.002000   0.060000
                    }
                }
            }
        }
    }
}
MOTION
Frames: 12
Frame Time:   0.008333
 -2.376719   0.925631   3.975860   0.000000   0.000000   0.000000   0.000000   0.000000   0.000000   0.000000   0.000000   0.000000   0.000000   0.000000   0.000000   0.000000   0.000000   0.000000   0.000000   0.000000   0.000000   0.000000   0.000000   0.000000   0.000000   0.000000   0.000000   0.000000   0.000000   0.000000   0.000000   0.000000   0.000000   0.000000   0.000000   0.000000   0.000000   0.000000   0.000000   0.000000   0.000000   0.000000   0.000000   0.000000   0.000000   0.000000   0.000000   0.000000   0.000000   0.000000   0.000000   0.000000   0.000000   0.000000   0.000000   0.000000   0.000000   0.000000   0.000000   0.000000   0.000000   0.000000   0.000000
 -2.376187   0.926039   3.971297   0.676521   0.028819   0.362222  -0.212892  -0.001333  -0.409670   0.694160  -0.364641   0.038232  -0.863913  -0.455802   0.049637  -0.086190   0.613085   0.578148  -0.384337   0.151139   1.582884   0.014613   0.775074  -0.004790   0.049106  -1.206073  -2.802847   0.185664  -0.085256  -0.288650   0.573312   0.599344  -1.763803   0.024915  -1.374418   0.023288   0.273960   0.830297   2.449706  -1.444253   0.140449  -0.583254   0.303377   0.000588   0.000418  -0.191979  -0.004927   0.261485   0.802301  -0.000274   0.001091  -2.201156  -0.406544  -0.399764   2.330232   0.000478  -0.007985  -0.508554   0.001461  -0.090688   0.205922   0.000221  -0.000702
 -2.375420   0.926682   3.964493   1.208579  -0.162544   0.742759   0.082015   0.083432  -0.791819   1.719196  -0.638226   0.081753  -1.661060  -0.911216   0.088543  -0.181308   1.522879   1.801043  -0.758961   0.541105   3.588651   0.035623   1.596231  -0.014191   0.072620  -2.031458  -4.978925   0.376112  -0.358831  -1.219745   1.129015   0.995211  -3.937611   0.057280  -2.722304   0.049956   0.570499   1.317414   4.231268  -3.032936   0.315187  -1.296781   0.462519   0.000952   0.000254  -0.374302  -0.009341   0.505254   1.542822   0.000447   0.000532  -4.575891  -0.785247  -0.789410   4.607327  -0.000614  -0.018634  -0.969417   0.000446  -0.176569   0.428692   0.000304  -0.001764
 -2.374501   0.927224   3.956375   1.646706  -0.474953   1.104020   0.711980   0.208907  -1.128789   2.961535  -0.835888   0.141333  -2.362548  -1.339252   0.120045  -0.307185   2.642075   3.386630  -1.134200   1.098610   5.796428   0.058308   2.437074  -0.025536   0.118684  -2.430598  -6.403240   0.542688  -0.825624  -2.525244   1.654177   1.183968  -6.297807   0.089589  -4.034704   0.075891   0.876583   1.481233   5.289466  -4.683036   0.501324  -2.059035   0.508920   0.000937   0.000121  -0.549425  -0.016789   0.731644   2.207604   0.001534  -0.000695  -7.001797  -1.133213  -1.115785   6.660420  -0.003016  -0.027933  -1.401972  -0.000462  -0.256664   0.626213   0.000226  -0.002678
 -2.373475   0.927446   3.947627   2.031456  -0.837901   1.444502   1.560826   0.348023  -1.429886   4.323471  -0.986184   0.213522  -2.983370  -1.739634   0.145601  -0.483662   3.901907   5.154467  -1.519781   1.768457   8.074607   0.079776   3.282200  -0.036795   0.206568  -2.468681  -7.286252   0.666363  -1.451907  -4.020663   2.139729   1.194756  -8.706151   0.118193  -5.310788   0.098825   1.203842   1.344043   5.849835  -6.342425   0.700100  -2.843772   0.476852   0.000611   0.000169  -0.716848  -0.026294   0.942013   2.804672   0.002668  -0.001916  -9.433197  -1.452415  -1.377163   8.499218  -0.005994  -0.034509  -1.809566  -0.000685  -0.331220   0.795145   0.000063  -0.003284
 -2.372370   0.927198   3.938779   2.389799  -1.210718   1.766037   2.539590   0.487008  -1.701633   5.731382  -1.106654   0.294992  -3.535775  -2.113841   0.165597  -0.721871   5.236130   6.996934  -1.920618   2.500008  10.344614   0.098293   4.116863  -0.046475   0.335310  -2.236353  -7.813757   0.734955  -2.187972  -5.592183   2.579111   1.070386 -11.078913   0.141397  -6.544355   0.117242   1.551985   0.962780   6.103330  -7.970837   0.912019  -3.637031   0.393343   0.000092   0.000341  -0.876194  -0.036943   1.137589   3.341501   0.003692  -0.002865 -11.833806  -1.745194  -1.581016  10.151621  -0.008951  -0.038312  -2.193344  -0.000036  -0.400599   0.939139  -0.000124  -0.003591
 -2.371212   0.926365   3.930218   2.738318  -1.571000   2.069861   3.580708   0.619708  -1.946905   7.132847  -1.206967   0.384821  -4.029615  -2.463429   0.180516  -1.022560   6.584057   8.855155  -2.336501   3.248294  12.564087   0.112960   4.927516  -0.053658   0.493384  -1.825836  -8.108395   0.745553  -2.980007  -7.175459   2.970670   0.856679 -13.371542   0.158651  -7.726924   0.130324   1.912405   0.411304   6.172395  -9.539007   1.135502  -4.429545   0.279467  -0.000500   0.000550  -1.027282  -0.048134   1.319477   3.824456   0.004538  -0.003482 -14.174505  -2.014246  -1.736820  11.645389  -0.011514  -0.039800  -2.554241   0.001446  -0.465179   1.061725  -0.000295  -0.003658
 -2.370200   0.924419   3.921227   3.037709  -1.999249   2.048126   4.714525   0.707622  -1.825528   8.525575  -1.207548   0.510471  -4.419222  -2.880973   0.147653  -1.407180   8.296172  10.351907  -2.904615   4.053947  14.168778   0.101808   5.248701  -0.049402   0.645841  -1.465528  -7.517290   0.662904  -3.746784  -8.485932   3.297282   0.241563 -15.426202   0.160423  -8.703576   0.134362   2.033207  -0.130110   5.793235 -11.994761   0.898455  -4.733313   3.085594   0.010159  -0.020264  -1.419608  -0.017079   1.503630   3.924793   0.003827  -0.003508 -16.725054  -2.411874  -1.534569  13.783779  -0.016910  -0.046782  -3.209242  -0.298858  -0.620818   1.312608  -0.000592  -0.005441
 -2.369252   0.921455   3.913064   3.238407  -2.326922   1.988999   5.817358   0.757011  -1.682501   9.884476  -1.211793   0.649251  -4.746591  -3.276696   0.131150  -1.846078   9.977871  11.579007  -3.473612   4.857315  15.529898   0.091401   5.564354  -0.045367   0.791334  -1.132077  -7.088265   0.536705  -4.543591  -9.590059   3.562055  -0.406079 -17.245613   0.157685  -9.644353   0.134524   2.160733  -0.763164   5.521463 -14.219184   0.646526  -4.959272   6.081852   0.015842  -0.036628  -1.753948   0.006723   1.674024   4.113966   0.003301  -0.004056 -19.102273  -2.810859  -1.335495  15.840538  -0.020966  -0.049249  -3.816434  -0.582640  -0.770827   1.553847  -0.000827  -0.006463
 -2.368374   0.917532   3.905798   3.424667  -2.590286   1.929640   6.826490   0.801664  -1.550402  11.138490  -1.216919   0.778515  -5.041302  -3.646199   0.119649  -2.307957  11.557391  12.641088  -4.030051   5.613245  16.730837   0.081842   5.869322  -0.041319   0.938183  -0.773050  -6.852330   0.388189  -5.305151 -10.546542   3.782378  -1.029664 -18.880021   0.151832 -10.532517   0.130836   2.290643  -1.425909   5.390862 -16.215984   0.412976  -5.153695   8.956235   0.017446  -0.046965  -2.060321   0.028847   1.833145   4.308298   0.002777  -0.004391 -21.358301  -3.185799  -1.172205  17.754730  -0.023423  -0.048532  -4.383147  -0.845839  -0.914216   1.777480  -0.000981  -0.006886
 -2.367529   0.913918   3.898907   3.565491  -3.003529   1.754073   7.875367   0.921454  -1.353278  12.337602  -1.156178   0.909866  -5.330786  -3.987884   0.110718  -2.803453  13.084199  13.626117  -4.578558   6.347512  17.817943   0.073578   6.167018  -0.037589   1.084999  -0.379071  -6.776897   0.221662  -6.028004 -11.466183   3.965153  -1.621144 -20.396865   0.144759 -11.361255   0.125463   2.409861  -2.048610   5.364957 -18.316671   0.125360  -4.996860  11.574406   0.011976  -0.057027  -2.202315  -0.003707   2.084982   4.563175   0.001600  -0.005422 -23.438974  -3.546098  -0.897348  19.518732  -0.024663  -0.048183  -4.909819  -1.087630  -1.049069   2.006310  -0.001099  -0.007356
 -2.366560   0.910074   3.892804   3.654898  -3.300439   1.617794   8.863332   0.991198  -1.196033  13.480918  -1.121489   1.027832  -5.584466  -4.309107   0.103385  -3.290621  14.485242  14.540753  -5.102270   7.013730  18.830296   0.065984   6.444281  -0.033844   1.227596   0.005773  -6.739131   0.052116  -6.696001 -12.310100   4.121840  -2.173437 -21.805156   0.136602 -12.135445   0.118178   2.525818  -2.644928   5.342186 -20.245198  -0.094587  -4.907455  14.108741   0.007200  -0.060059  -2.369055   0.010192   2.244812   4.745962   0.000983  -0.005343 -25.382314  -3.890627  -0.751730  21.169970  -0.024271  -0.045670  -5.402580  -1.314211  -1.178025   2.209097  -0.001063  -0.007294
